<svg xmlns="http://www.w3.org/2000/svg" xmlns:xlink="http://www.w3.org/1999/xlink" width="500" zoomAndPan="magnify" viewBox="0 0 375 374.999991" height="500" preserveAspectRatio="xMidYMid meet" version="1.0"><defs><clipPath id="47125e71bc"><path d="M 115.226562 120 L 256.773438 120 L 256.773438 261.546875 L 115.226562 261.546875 Z M 115.226562 120 " clip-rule="nonzero"/></clipPath><clipPath id="f7bbc3e104"><path d="M 186 120 C 146.914062 120 115.226562 151.6875 115.226562 190.773438 C 115.226562 229.859375 146.914062 261.546875 186 261.546875 C 225.085938 261.546875 256.773438 229.859375 256.773438 190.773438 C 256.773438 151.6875 225.085938 120 186 120 Z M 186 120 " clip-rule="nonzero"/></clipPath></defs><g clip-path="url(#47125e71bc)"><g clip-path="url(#f7bbc3e104)"><path fill="#ffffff" d="M 115.226562 120 L 256.773438 120 L 256.773438 261.546875 L 115.226562 261.546875 Z M 115.226562 120 " fill-opacity="1" fill-rule="nonzero"/></g></g><path fill="#000000" d="M 169.441406 164.34375 C 172 164.34375 174.359375 164.542969 176.523438 165.136719 C 178.6875 165.53125 180.457031 166.324219 182.03125 167.3125 C 183.605469 168.300781 184.785156 169.6875 185.574219 171.46875 C 186.359375 173.25 186.753906 175.425781 186.753906 177.800781 C 186.753906 180.570312 186.164062 182.945312 184.785156 184.726562 C 183.605469 186.507812 181.640625 188.089844 179.277344 189.277344 C 182.621094 190.265625 185.179688 192.046875 186.753906 194.421875 C 188.328125 196.796875 189.3125 199.765625 189.3125 203.128906 C 189.3125 205.898438 188.722656 208.273438 187.738281 210.253906 C 186.753906 212.230469 185.179688 214.011719 183.410156 215.199219 C 181.640625 216.386719 179.476562 217.375 177.113281 217.96875 C 174.753906 218.5625 172.394531 218.960938 170.03125 218.960938 L 143.671875 218.960938 L 143.671875 164.34375 Z M 167.867188 186.507812 C 170.03125 186.507812 171.804688 185.914062 173.179688 184.925781 C 174.558594 183.933594 175.148438 182.152344 175.148438 179.976562 C 175.148438 178.789062 174.949219 177.601562 174.558594 176.8125 C 174.164062 176.019531 173.574219 175.425781 172.785156 174.832031 C 172 174.4375 171.210938 174.039062 170.230469 173.84375 C 169.246094 173.644531 168.261719 173.644531 167.082031 173.644531 L 155.671875 173.644531 L 155.671875 186.507812 Z M 168.457031 209.855469 C 169.640625 209.855469 170.820312 209.660156 171.804688 209.460938 C 172.785156 209.261719 173.769531 208.867188 174.558594 208.273438 C 175.34375 207.679688 175.933594 207.085938 176.523438 206.097656 C 176.917969 205.109375 177.3125 203.921875 177.3125 202.535156 C 177.3125 199.765625 176.523438 197.785156 174.949219 196.402344 C 173.375 195.214844 171.210938 194.621094 168.65625 194.621094 L 155.671875 194.621094 L 155.671875 209.855469 Z M 206.425781 209.660156 C 208 211.242188 210.359375 212.035156 213.507812 212.035156 C 215.671875 212.035156 217.640625 211.441406 219.210938 210.449219 C 220.785156 209.261719 221.769531 208.078125 222.164062 206.890625 L 231.804688 206.890625 C 230.230469 211.636719 227.867188 215.003906 224.722656 217.179688 C 221.574219 219.15625 217.835938 220.34375 213.3125 220.34375 C 210.164062 220.34375 207.410156 219.75 204.851562 218.761719 C 202.292969 217.773438 200.328125 216.386719 198.558594 214.410156 C 196.785156 212.628906 195.410156 210.449219 194.621094 207.878906 C 193.640625 205.304688 193.246094 202.535156 193.246094 199.371094 C 193.246094 196.402344 193.640625 193.632812 194.621094 191.058594 C 195.605469 188.484375 196.984375 186.308594 198.753906 184.332031 C 200.523438 182.550781 202.6875 180.964844 205.050781 179.976562 C 207.605469 178.988281 210.164062 178.394531 213.3125 178.394531 C 216.65625 178.394531 219.605469 178.988281 222.164062 180.375 C 224.722656 181.757812 226.6875 183.339844 228.261719 185.714844 C 229.835938 187.890625 231.015625 190.464844 231.804688 193.234375 C 232.195312 196.003906 232.394531 198.777344 232.195312 201.941406 L 203.671875 201.941406 C 203.671875 205.109375 204.851562 208.078125 206.425781 209.660156 Z M 218.820312 188.882812 C 217.441406 187.496094 215.277344 186.707031 212.722656 186.707031 C 210.949219 186.707031 209.574219 187.101562 208.394531 187.695312 C 207.210938 188.289062 206.425781 189.078125 205.640625 189.871094 C 204.851562 190.664062 204.457031 191.652344 204.261719 192.640625 C 204.066406 193.632812 203.867188 194.421875 203.867188 195.214844 L 221.574219 195.214844 C 221.179688 192.246094 220.195312 190.265625 218.820312 188.882812 Z M 201.507812 168.105469 L 223.539062 168.105469 L 223.539062 173.449219 L 201.507812 173.449219 Z M 201.507812 168.105469 " fill-opacity="1" fill-rule="nonzero"/></svg>