<svg width="24" height="24" viewBox="0 0 24 24" fill="none" xmlns="http://www.w3.org/2000/svg">
<g clip-path="url(#clip0_30_1350)">
<path d="M12 18.375C15.5208 18.375 18.375 15.5208 18.375 12C18.375 8.47918 15.5208 5.625 12 5.625C8.47918 5.625 5.625 8.47918 5.625 12C5.625 15.5208 8.47918 18.375 12 18.375Z" fill="white"/>
<path d="M12 4.125C12.1989 4.125 12.3897 4.04598 12.5303 3.90533C12.671 3.76468 12.75 3.57391 12.75 3.375V1.5C12.75 1.30109 12.671 1.11032 12.5303 0.96967C12.3897 0.829018 12.1989 0.75 12 0.75C11.8011 0.75 11.6103 0.829018 11.4697 0.96967C11.329 1.11032 11.25 1.30109 11.25 1.5V3.375C11.25 3.57391 11.329 3.76468 11.4697 3.90533C11.6103 4.04598 11.8011 4.125 12 4.125Z" fill="white"/>
<path d="M5.37193 6.43124C5.51371 6.56926 5.70376 6.64648 5.90162 6.64648C6.09948 6.64648 6.28953 6.56926 6.4313 6.43124C6.57156 6.29064 6.65033 6.10015 6.65033 5.90156C6.65033 5.70296 6.57156 5.51247 6.4313 5.37187L5.10943 4.04062C5.04218 3.95868 4.95853 3.89173 4.86385 3.84408C4.76917 3.79642 4.66556 3.76911 4.55969 3.76391C4.45382 3.75872 4.34803 3.77574 4.24914 3.81389C4.15024 3.85203 4.06043 3.91046 3.98548 3.98542C3.91053 4.06037 3.8521 4.15018 3.81395 4.24908C3.7758 4.34797 3.75878 4.45376 3.76398 4.55963C3.76918 4.6655 3.79648 4.76911 3.84414 4.86379C3.89179 4.95847 3.95874 5.04212 4.04068 5.10937L5.37193 6.43124Z" fill="white"/>
<path d="M4.125 12C4.125 11.8011 4.04598 11.6103 3.90533 11.4697C3.76468 11.329 3.57391 11.25 3.375 11.25H1.5C1.30109 11.25 1.11032 11.329 0.96967 11.4697C0.829018 11.6103 0.75 11.8011 0.75 12C0.75 12.1989 0.829018 12.3897 0.96967 12.5303C1.11032 12.671 1.30109 12.75 1.5 12.75H3.375C3.57391 12.75 3.76468 12.671 3.90533 12.5303C4.04598 12.3897 4.125 12.1989 4.125 12Z" fill="white"/>
<path d="M5.37189 17.5688L4.04064 18.8906C3.89981 19.0328 3.8208 19.2249 3.8208 19.425C3.8208 19.6251 3.89981 19.8172 4.04064 19.9594C4.18564 20.0954 4.37623 20.1723 4.57502 20.175C4.77418 20.1742 4.96543 20.097 5.10939 19.9594L6.43127 18.6281C6.56054 18.4855 6.63 18.2985 6.62526 18.1061C6.62052 17.9136 6.54195 17.7303 6.40581 17.5942C6.26968 17.4581 6.08641 17.3795 5.89394 17.3748C5.70148 17.37 5.51456 17.4395 5.37189 17.5688Z" fill="white"/>
<path d="M12 19.875C11.8011 19.875 11.6103 19.954 11.4697 20.0947C11.329 20.2353 11.25 20.4261 11.25 20.625V22.5C11.25 22.6989 11.329 22.8897 11.4697 23.0303C11.6103 23.171 11.8011 23.25 12 23.25C12.1989 23.25 12.3897 23.171 12.5303 23.0303C12.671 22.8897 12.75 22.6989 12.75 22.5V20.625C12.75 20.4261 12.671 20.2353 12.5303 20.0947C12.3897 19.954 12.1989 19.875 12 19.875Z" fill="white"/>
<path d="M18.6281 17.5688C18.4854 17.4395 18.2985 17.37 18.1061 17.3748C17.9136 17.3795 17.7303 17.4581 17.5942 17.5942C17.458 17.7303 17.3795 17.9136 17.3747 18.1061C17.37 18.2985 17.4395 18.4855 17.5687 18.6281L18.8906 19.9594C19.0346 20.097 19.2258 20.1742 19.425 20.175C19.6238 20.1723 19.8144 20.0954 19.9594 19.9594C20.1002 19.8172 20.1792 19.6251 20.1792 19.425C20.1792 19.2249 20.1002 19.0328 19.9594 18.8906L18.6281 17.5688Z" fill="white"/>
<path d="M22.5 11.25H20.625C20.4261 11.25 20.2353 11.329 20.0947 11.4697C19.954 11.6103 19.875 11.8011 19.875 12C19.875 12.1989 19.954 12.3897 20.0947 12.5303C20.2353 12.671 20.4261 12.75 20.625 12.75H22.5C22.6989 12.75 22.8897 12.671 23.0303 12.5303C23.171 12.3897 23.25 12.1989 23.25 12C23.25 11.8011 23.171 11.6103 23.0303 11.4697C22.8897 11.329 22.6989 11.25 22.5 11.25Z" fill="white"/>
<path d="M18.1031 6.64689C18.2006 6.64775 18.2972 6.62912 18.3874 6.59209C18.4776 6.55506 18.5594 6.50038 18.6281 6.43126L19.9594 5.10939C20.079 4.96367 20.1401 4.77867 20.1309 4.59038C20.1216 4.40209 20.0427 4.22397 19.9094 4.09067C19.7761 3.95737 19.5979 3.87842 19.4096 3.86917C19.2214 3.85992 19.0364 3.92104 18.8906 4.04064L17.5688 5.37189C17.4285 5.51249 17.3497 5.70298 17.3497 5.90158C17.3497 6.10017 17.4285 6.29066 17.5688 6.43126C17.6386 6.50152 17.722 6.55687 17.8138 6.59393C17.9057 6.631 18.0041 6.64902 18.1031 6.64689Z" fill="white"/>
</g>
<defs>
<clipPath id="clip0_30_1350">
<rect width="24" height="24" fill="white"/>
</clipPath>
</defs>
</svg>
